# xmcd CD database file
#
# Track frame offsets:
#	150
#	13260
#	29445
#	52657
#	72763
#	90140
#	104050
#	125785
#	145738
#	159863
#	180025
#
# Disc length: 2629 seconds
#
# Revision: 0
# Processed by: cddbd v1.5.2PL0 Copyright (c) Steve Scherf et al.
# Submitted via: CDex 1.70beta2
#
DISCID=810a430b
DTITLE=Roseanne Cash - What Kinda Girl...Live
DYEAR=1988
DGENRE=Country
TTITLE0=Tenessee Flat Top Box
TTITLE1=Seven Year Ache
TTITLE2=My Baby Thinks He's A Train
TTITLE3=Blue Moon With A Heartache
TTITLE4=707
TTITLE5=Pink Bedroom
TTITLE6=This Is The Way We Make a Broken Heart
TTITLE7=Runaway Train
TTITLE8=I don't Know Why You Don't Want Me
TTITLE9=What Kinda Girl
TTITLE10=Hold On
EXTD=YEAR: 1988
EXTT0=
EXTT1=
EXTT2=
EXTT3=
EXTT4=
EXTT5=
EXTT6=
EXTT7=
EXTT8=
EXTT9=
EXTT10=
PLAYORDER=
